<?xml version="1.0" encoding="utf-8"?>
<!-- Generator: Adobe Illustrator 23.0.6, SVG Export Plug-In . SVG Version: 6.00 Build 0)  -->
<svg version="1.1" id="Layer_1" xmlns="http://www.w3.org/2000/svg" xmlns:xlink="http://www.w3.org/1999/xlink" x="0px" y="0px"
	 viewBox="0 0 524.5 257.1" style="enable-background:new 0 0 524.5 257.1;" xml:space="preserve">
<style type="text/css">
	.st0{enable-background:new    ;}
	.st1{fill:#5F6368;}
	.st2{fill:#EA4335;}
	.st3{fill:#4285F4;}
	.st4{fill:#FF6D00;}
	.st5{fill:#185ABC;}
	.st6{fill:#FBBC04;}
	.st7{fill:#34A853;}
</style>
<title>Final_LogoNE_COLORANDGREY</title>
<g class="st0">
	<path class="st1" d="M268.2,72.6c0-4-0.4-7.5-0.4-10.4h7c0,2.4,0.2,4.8,0.2,7.2h0.2c2-4.3,7.4-8.4,14.7-8.4
		c11.6,0,16.8,7.3,16.8,18v27.2h-7.3V79.7c0-7.3-3.2-12-10.1-12c-9.5,0-13.6,6.9-13.6,16.9v21.5h-7.3V72.6z"/>
	<path class="st1" d="M359.9,98.2c-5.2,6.7-11.4,9.1-19.6,9.1c-13.8,0-22.3-10.4-22.3-23.1c0-13.6,9.6-23.1,22.6-23.1
		c12.4,0,20.9,8.5,20.9,23.1v2.4h-35.6c0.6,7.6,6.4,14.1,14.4,14.1c6.3,0,10.5-2.3,14-6.7L359.9,98.2z M353.6,80.2
		c-0.3-7.4-5.2-12.4-13.3-12.4s-13.5,5-14.4,12.4H353.6z"/>
	<path class="st1" d="M420.1,106.1h-7.2l-12.5-33.9h-0.2L389,106.1h-7.5l-14.3-44h8.1L385.4,96h0.2L397,62.1h7.7L416.2,96h0.2
		l10-33.9h7.9L420.1,106.1z"/>
</g>
<g class="st0">
	<path class="st1" d="M307.6,178.8c-5.2,6.7-11.4,9.1-19.6,9.1c-13.8,0-22.3-10.4-22.3-23.1c0-13.6,9.6-23.1,22.6-23.1
		c12.4,0,20.9,8.5,20.9,23.1v2.4h-35.6c0.6,7.6,6.4,14.1,14.4,14.1c6.3,0,10.5-2.3,14-6.7L307.6,178.8z M301.3,160.8
		c-0.3-7.4-5.2-12.4-13.3-12.4s-13.5,5-14.4,12.4H301.3z"/>
	<path class="st1" d="M320.2,142.8h7.3v6.4h0.2c4-4.7,9.4-7.5,15.8-7.5c13.8,0,23.1,9.8,23.1,23.1c0,13.2-9.7,23.1-22,23.1
		c-7.9,0-14.2-4-16.9-8.9h-0.2v29.3h-7.3V142.8z M343.1,181.2c9.5,0,15.6-7.2,15.6-16.4s-6.1-16.4-15.6-16.4s-15.6,7.2-15.6,16.4
		S333.6,181.2,343.1,181.2z"/>
	<path class="st1" d="M399,141.6c13.6,0,23.5,9.4,23.5,23.1c0,13.7-10,23.1-23.5,23.1c-13.5,0-23.5-9.4-23.5-23.1
		C375.5,151.1,385.5,141.6,399,141.6z M399,181.2c9.5,0,15.6-7.2,15.6-16.4s-6.1-16.4-15.6-16.4c-9.5,0-15.6,7.2-15.6,16.4
		S389.5,181.2,399,181.2z"/>
	<path class="st1" d="M465.3,153.8c-3.1-3.8-6.7-5.4-11.1-5.4c-9.9,0-14.9,7.3-14.9,16.4c0,9,5.9,16.4,14.9,16.4
		c4.8,0,8.5-1.7,11.2-5.5l5.5,5.2c-4.2,4.9-10.3,7.1-16.7,7.1c-13.6,0-22.8-9.6-22.8-23.1c0-13.4,9.2-23.1,22.8-23.1
		c6.5,0,12.5,2.2,16.9,7L465.3,153.8z"/>
	<path class="st1" d="M479.3,115.7h7.3v33.2h0.2c2-3.5,7.2-7.2,14.1-7.2c11.6,0,16.8,7.3,16.8,18v27.2h-7.3v-26.4
		c0-7.3-3.2-12-10.1-12c-9.5,0-13.6,6.9-13.6,16.9v21.5h-7.3V115.7z"/>
</g>
<g>
	<path class="st1" d="M182.7,51.5c-1.2,10.3,6.2,19.7,16.5,20.9c10.3,1.2,19.7-6.2,20.9-16.5S214,36.2,203.7,35
		c-1.8-0.2-3.6-0.2-5.4,0.1C190.1,36.6,183.7,43.2,182.7,51.5z"/>
</g>
<g>
	<path class="st1" d="M182.7,126.5c-1.2,10.3,6.2,19.7,16.5,20.9c10.3,1.2,19.7-6.2,20.9-16.5c1.2-10.3-6.2-19.7-16.5-20.9
		c-1.8-0.2-3.6-0.2-5.4,0.1C190.1,111.6,183.7,118.2,182.7,126.5z"/>
</g>
<g>
	<path class="st1" d="M182.7,202.2c-1.2,10.3,6.2,19.7,16.5,20.9s19.7-6.2,20.9-16.5c1.2-10.3-6.2-19.7-16.5-20.9
		c-1.8-0.2-3.6-0.2-5.4,0.1C190.1,187.2,183.7,193.9,182.7,202.2z"/>
</g>
<g>
	<path class="st1" d="M32.1,51.5c-1.2,10.3,6.2,19.7,16.5,20.9s19.7-6.2,20.9-16.5C70.7,45.6,63.4,36.2,53,35
		c-1.8-0.2-3.6-0.2-5.4,0.1C39.4,36.6,33.1,43.2,32.1,51.5z"/>
</g>
<g>
	<path class="st1" d="M32.1,202.2c-1.2,10.3,6.2,19.7,16.5,20.9c10.3,1.2,19.7-6.2,20.9-16.5c1.2-10.3-6.2-19.7-16.5-20.9
		c-1.8-0.2-3.6-0.2-5.4,0.1C39.4,187.2,33.1,193.9,32.1,202.2z"/>
</g>
<g>
	<path class="st2" d="M83.9,35.4c-1.2,10.3,6.2,19.7,16.5,20.9c10.3,1.2,19.7-6.2,20.9-16.5c1.2-10.3-6.2-19.7-16.5-20.9
		c-1.8-0.2-3.6-0.2-5.4,0.1C91.2,20.4,84.9,27.1,83.9,35.4z"/>
</g>
<g>
	<path class="st3" d="M83.9,126.4c-1.2,10.3,6.2,19.7,16.6,20.9c10.3,1.2,19.7-6.2,20.9-16.6c1.2-10.3-6.2-19.7-16.6-20.9
		c-1.8-0.2-3.6-0.2-5.4,0.2C91.2,111.4,84.9,118.1,83.9,126.4z"/>
</g>
<g>
	<path class="st4" d="M83.9,219.3c-1.2,10.3,6.2,19.7,16.5,20.9c10.3,1.2,19.7-6.2,20.9-16.5s-6.2-19.7-16.5-20.9
		c-1.8-0.2-3.6-0.2-5.4,0.1C91.2,204.3,84.9,211,83.9,219.3z"/>
</g>
<g>
	<path class="st5" d="M0.1,16.6C-1.1,27,6.3,36.3,16.6,37.5C27,38.8,36.3,31.4,37.6,21C38.8,10.7,31.4,1.3,21,0.1
		c-1.8-0.2-3.6-0.2-5.4,0.1C7.4,1.7,1.1,8.3,0.1,16.6z"/>
</g>
<g>
	<path class="st6" d="M0.1,126.4c-1.2,10.3,6.2,19.7,16.6,20.9c10.3,1.2,19.7-6.2,20.9-16.6c1.2-10.3-6.2-19.7-16.6-20.9
		c-1.8-0.2-3.6-0.2-5.4,0.2C7.4,111.4,1.1,118.1,0.1,126.4z"/>
</g>
<g>
	<path class="st7" d="M0.1,236.1c-1.2,10.3,6.2,19.7,16.5,20.9c10.3,1.2,19.7-6.2,20.9-16.5c1.2-10.3-6.2-19.7-16.5-20.9
		c-1.8-0.2-3.6-0.2-5.4,0.1C7.4,221.1,1.1,227.8,0.1,236.1z"/>
</g>
<g>
	<path class="st1" d="M47.3,110.2c-2.2,0.4-4.4,1.2-6.4,2.3c4.3,6,6.1,13.5,4.8,20.8c-0.7,4.2-2.4,8.2-5,11.6
		c8.9,5.4,20.5,2.5,25.8-6.5c5.4-8.9,2.5-20.5-6.5-25.8C56.3,110.3,51.7,109.4,47.3,110.2z"/>
</g>
<g>
	<path class="st1" d="M123.3,185.2c-5.8,1-10.8,4.6-13.5,9.8c12.2,3.3,20.6,14.5,20.3,27.2c10.1-2.3,16.5-12.4,14.2-22.6
		C142.1,190.1,132.9,183.8,123.3,185.2L123.3,185.2z"/>
</g>
<g>
	<path class="st1" d="M123.3,110c-0.1,0-0.2,0-0.3,0.1c5.7,6.3,8.2,14.8,6.8,23.1c-0.9,5.2-3.2,10-6.8,13.9c1.9,0.4,3.8,0.4,5.7,0.2
		c10.3-1.1,17.8-10.4,16.7-20.8s-10.4-17.8-20.8-16.7C124.2,109.9,123.7,109.9,123.3,110z"/>
</g>
<g>
	<path class="st1" d="M130,35.1c0.2,2.4,0.1,4.8-0.3,7.1c-1.8,10.2-9.1,18.6-19.1,21.6c5.7,8.7,17.3,11.2,26.1,5.5
		c8.7-5.7,11.2-17.3,5.5-26.1C139.4,39,135,36.1,130,35.1z"/>
</g>
</svg>
